HIERARCHY
ROOT Hips
{
	OFFSET -0.179506 -22.333345 2.821913
	CHANNELS 6 Xposition Yposition Zposition Zrotation Yrotation Xrotation 
	JOINT LeftUpLeg
	{
		OFFSET 6.951974 -9.140623 -0.681533
		CHANNELS 3 Zrotation Yrotation Xrotation
		JOINT LeftLeg
		{
			OFFSET 3.427654 -37.519855 -0.449580
			CHANNELS 3 Zrotation Yrotation Xrotation
			JOINT LeftFoot
			{
				OFFSET -1.359570 -39.796059 -4.369333
				CHANNELS 3 Zrotation Yrotation Xrotation
				JOINT LeftToe
				{
					OFFSET 2.635814 -5.579078 11.928840
					CHANNELS 3 Zrotation Yrotation Xrotation
					End Site
					{
						OFFSET 0.000000 0.000000 0.000000
					}
				}
			}
		}
	}
	JOINT RightUpLeg
	{
		OFFSET -6.767048 -9.052170 -0.431982
		CHANNELS 3 Zrotation Yrotation Xrotation
		JOINT RightLeg
		{
			OFFSET -3.829005 -38.256897 -0.885003
			CHANNELS 3 Zrotation Yrotation Xrotation
			JOINT RightFoot
			{
				OFFSET 1.577377 -39.841461 -4.231180
				CHANNELS 3 Zrotation Yrotation Xrotation
				JOINT RightToe
				{
					OFFSET -2.537174 -4.814398 12.334795
					CHANNELS 3 Zrotation Yrotation Xrotation
					End Site
					{
						OFFSET 0.000000 0.000000 0.000000
					}
				}
			}
		}
	}
	JOINT Spine
	{
		OFFSET -0.253288 10.896323 -2.669631
		CHANNELS 3 Zrotation Yrotation Xrotation
		JOINT Spine1
		{
			OFFSET 0.548704 13.518043 0.109247
			CHANNELS 3 Zrotation Yrotation Xrotation
			JOINT Spine2
			{
				OFFSET 0.145701 5.292222 2.542457
				CHANNELS 3 Zrotation Yrotation Xrotation
				JOINT Neck
				{
					OFFSET -0.277840 21.387037 -4.285703
					CHANNELS 3 Zrotation Yrotation Xrotation
					JOINT Head
					{
						OFFSET 0.515184 6.496960 5.134897
						CHANNELS 3 Zrotation Yrotation Xrotation
						End Site
						{
							OFFSET 0.000000 0.000000 0.000000
						}
					}
				}
				JOINT LeftShoulder
				{
					OFFSET 7.884473 12.174932 -3.408961
					CHANNELS 3 Zrotation Yrotation Xrotation
					JOINT LeftArm
					{
						OFFSET 9.097692 3.046888 -0.886815
						CHANNELS 3 Zrotation Yrotation Xrotation
						JOINT LeftForeArm
						{
							OFFSET 25.961220 -1.277207 -2.745643
							CHANNELS 3 Zrotation Yrotation Xrotation
							JOINT LeftHand
							{
								OFFSET 24.923361 0.898606 -0.117091
								CHANNELS 3 Zrotation Yrotation Xrotation
								End Site
								{
									OFFSET 0.000000 0.000000 0.000000
								}
							}
						}
					}
				}
				JOINT RightShoulder
				{
					OFFSET -8.175920 11.883285 -3.861528
					CHANNELS 3 Zrotation Yrotation Xrotation
					JOINT RightArm
					{
						OFFSET -9.601238 3.255117 -0.914307
						CHANNELS 3 Zrotation Yrotation Xrotation
						JOINT RightForeArm
						{
							OFFSET -25.374195 -1.332924 -2.140099
							CHANNELS 3 Zrotation Yrotation Xrotation
							JOINT RightHand
							{
								OFFSET -25.529810 0.777228 -0.555919
								CHANNELS 3 Zrotation Yrotation Xrotation
								End Site
								{
									OFFSET 0.000000 0.000000 0.000000
								}
							}
						}
					}
				}
			}
		}
	}
}
MOTION
Frames: 10
Frame Time: 0.033333
31.270319 38.083420 87.627151 -48.738004 -0.872676 133.412438 3.582740 2.720952 -77.972824 -3.872357 9.613281 28.669524 -6.508865 -7.188378 5.187771 nan nan nan -0.606622 -4.587457 -76.543134 1.129527 -12.113881 34.140910 8.707683 8.604854 2.188544 nan nan nan 1.975708 1.154549 68.109477 -3.357668 -2.469912 -15.875021 4.881915 -0.642471 -1.752361 -9.296762 -0.523516 -13.111171 15.911435 -2.329388 -16.804744 1.736767 -26.218887 -9.643221 -36.257962 -32.539408 -1.342540 12.447867 -31.782442 -20.036704 -0.533820 -16.815373 -23.248704 -4.497694 26.754164 -3.977245 34.107830 33.692938 -10.203385 -11.675389 25.786021 -24.379547 0.433020 16.301438 -28.197573 
31.182358 38.096867 87.779510 -48.626335 -0.844297 133.165288 3.406587 2.701290 -77.458085 -3.676469 9.478194 28.265551 -6.589467 -7.375303 5.368003 nan nan nan -0.452150 -4.473441 -75.995471 0.907401 -12.170145 33.770804 8.659786 8.708203 2.262546 nan nan nan 1.970814 1.027120 67.622981 -3.336098 -2.459492 -16.047740 4.791454 -0.603719 -1.635191 -9.164502 -0.318234 -12.812387 15.740718 -2.332278 -16.636779 1.453935 -25.643016 -9.177066 -37.208436 -32.130841 -0.545034 12.099049 -31.988805 -18.964259 -0.972021 -17.061913 -23.620836 -3.995573 26.382103 -3.309650 35.030395 33.617638 -9.508442 -11.351719 26.039191 -23.181920 0.576002 16.281509 -27.874306 
31.098824 38.100334 87.933311 -48.527943 -0.829373 132.898859 3.285693 2.586030 -76.903812 -3.551857 9.163680 27.796946 -6.641145 -7.376261 5.667808 nan nan nan -0.332534 -4.428506 -75.432253 0.863052 -12.216311 33.398520 8.549349 8.663823 2.364718 nan nan nan 1.999913 1.024249 66.934311 -3.265931 -2.435121 -15.859498 4.772247 -0.613776 -1.625407 -9.077864 -0.278191 -12.270424 15.609697 -2.229479 -16.730966 0.947638 -25.301731 -8.598836 -37.918743 -31.763249 -0.182924 11.840230 -32.083512 -18.503707 -1.471123 -17.330475 -23.699289 -3.484661 26.017297 -2.823768 35.756849 33.359911 -8.876666 -10.841203 26.234571 -21.969190 0.984337 16.115583 -27.561453 
31.027367 38.092606 88.108627 -48.462958 -0.804292 132.540291 3.099015 2.491386 -76.219374 -3.428070 8.783940 27.262074 -6.585411 -7.369941 6.156523 nan nan nan -0.156617 -4.430825 -74.741858 0.910782 -12.183562 32.917258 8.368070 8.618716 2.559813 nan nan nan 2.081017 1.003904 66.370834 -3.269046 -2.404709 -15.603634 4.742826 -0.623021 -1.653813 -9.046436 -0.405816 -11.958981 15.557266 -2.206177 -16.598223 0.553076 -25.019780 -8.083314 -38.708395 -31.380109 -0.003468 11.687767 -32.237885 -18.058330 -2.006739 -17.488496 -23.426712 -3.283605 25.630788 -2.718550 36.787997 32.974720 -8.242595 -10.312505 26.320561 -20.895338 1.644650 16.232575 -27.426907 
30.975674 38.083061 88.268799 -48.383778 -0.811025 132.217549 2.965815 2.361028 -75.565845 -3.293631 8.489303 26.714765 -6.546367 -7.210937 6.582320 nan nan nan -0.125298 -4.453578 -74.079563 0.975620 -12.233496 32.431160 8.390883 8.678333 2.689151 nan nan nan 2.182214 0.976515 65.774195 -3.228041 -2.386000 -15.432906 4.702065 -0.611261 -1.643876 -9.055648 -0.475930 -11.760215 15.422057 -2.234588 -16.320234 0.192405 -24.719809 -7.741334 -39.592891 -31.007857 0.367352 11.322333 -32.234213 -17.257587 -2.383312 -17.304480 -23.089336 -3.100284 25.285731 -2.628579 37.869751 32.493870 -7.527620 -9.944443 26.427968 -19.907967 1.883914 16.419733 -27.378073 
30.943825 38.073250 88.403969 -48.301488 -0.856613 132.029219 2.975870 2.162086 -75.041379 -3.157222 8.374185 26.147549 -6.699208 -6.974911 6.948787 nan nan nan -0.212622 -4.411659 -73.569368 1.003354 -12.232917 31.935274 8.461967 8.633493 2.797131 nan nan nan 2.273785 1.083888 64.976976 -3.120348 -2.293759 -15.366014 4.729298 -0.621555 -1.481039 -9.054424 -0.532750 -11.517759 15.203966 -2.332996 -16.086976 -0.258824 -24.449355 -7.398783 -40.542329 -30.810109 0.945498 10.958266 -32.105108 -16.605862 -2.322917 -17.038160 -22.674698 -2.743705 24.789408 -2.503265 38.788970 31.939216 -6.768434 -9.671067 26.644798 -18.920821 1.947267 16.459643 -26.815717 
30.882385 38.065216 88.549744 -48.256920 -0.914205 131.811962 2.935239 2.047631 -74.484458 -3.164960 8.224907 25.642452 -6.777602 -6.923703 6.929649 nan nan nan -0.262256 -4.319533 -73.041504 0.956739 -12.171921 31.483641 8.504385 8.487109 2.909792 nan nan nan 2.320230 1.245974 64.334272 -3.068904 -2.125748 -15.389490 4.781018 -0.695581 -1.354843 -8.954947 -0.615736 -11.383926 14.989997 -2.492591 -15.735217 -0.676474 -24.100598 -6.988528 -41.543863 -30.585666 1.631615 10.872269 -32.164271 -16.072312 -2.268692 -17.096789 -22.657522 -2.432589 24.108900 -2.502685 39.872573 31.395265 -5.928462 -9.343356 26.914674 -18.044679 2.319333 16.523476 -26.409349 
30.795172 38.074940 88.712082 -48.221863 -0.928261 131.439930 2.796153 2.001649 -73.821521 -3.148464 7.967820 25.255189 -6.806974 -7.002558 6.551668 nan nan nan -0.175494 -4.248941 -72.322626 0.960156 -12.066917 30.995458 8.537497 8.406132 3.001666 nan nan nan 2.306298 1.278473 63.834382 -3.044460 -2.019172 -15.264244 4.733792 -0.699890 -1.241239 -8.743402 -0.428448 -11.623933 14.779895 -2.781694 -15.221104 -0.741055 -23.603747 -6.548054 -42.544271 -30.213082 2.350953 10.961324 -32.351114 -15.477677 -2.335602 -18.442485 -24.275704 -2.250347 23.487665 -2.485725 40.965313 31.099410 -5.088357 -9.032557 27.029314 -17.125185 3.048738 16.741253 -26.503001 
30.709759 38.077499 88.858482 -48.145647 -0.959230 131.116931 2.516574 1.904977 -73.268504 -3.012387 7.522610 24.939407 -6.586665 -7.017854 6.377929 nan nan nan 0.017831 -4.305587 -71.715586 1.082329 -11.779404 30.595757 8.513517 8.317396 2.980011 nan nan nan 2.319914 1.231442 63.137954 -2.990358 -2.089505 -14.970370 4.717237 -0.679628 -1.224349 -8.634747 -0.503508 -11.431470 14.668861 -2.598590 -14.976900 -1.102362 -23.204310 -6.265052 -43.158414 -29.711237 2.573848 10.504830 -32.632248 -14.830436 -3.210896 -17.564815 -23.064319 -1.995080 23.240994 -2.086223 41.672699 30.770501 -4.780252 -8.655049 27.257725 -16.753472 3.666408 16.476857 -26.086051 
30.652252 38.067219 89.002792 -48.074441 -0.991651 130.843929 2.294787 1.788893 -72.739322 -2.776116 7.305482 24.577944 -6.510999 -7.025629 6.514408 nan nan nan 0.066110 -4.335293 -71.150520 1.220049 -11.623495 30.150260 8.442725 8.198681 3.025184 nan nan nan 2.358303 1.195059 62.409243 -2.897922 -2.159555 -14.784694 4.665853 -0.638460 -1.142737 -8.525065 -0.489262 -11.261717 14.507706 -2.555737 -14.730304 -1.480229 -22.705048 -5.995970 -43.972623 -29.434229 2.925214 10.105721 -32.594324 -14.475804 -3.082095 -17.473477 -22.461488 -1.606066 22.876252 -1.660609 42.347721 30.526464 -4.389054 -8.350227 27.406506 -16.329311 3.415443 16.401486 -25.654358 
